<svg width="1280" height="720" viewBox="0 0 1280 720" fill="none" xmlns="http://www.w3.org/2000/svg">
<path d="M664.5 335C604.69 241.5 513.8 0.1 -1 -1.5V723H1282V502.5C1204.83 409.333 1026.2 274.8 929 482C831.8 689.2 743.5 458.5 664.5 335Z" fill="url(#paint0_linear)"/>
<path d="M897.783 70.9942C899.793 63.8617 905.083 58.1135 912.129 55.4044L1022.17 13.0969C1030.49 9.89818 1040.06 11.3867 1047.18 16.9868V16.9868C1053.98 22.3365 1057.54 30.6591 1056.6 38.984V38.984C1055.61 47.6985 1049.85 55.083 1041.53 58.2817L931.482 100.589C924.436 103.298 916.414 102.668 909.726 98.8791V98.8791C899.701 93.1993 894.77 81.6868 897.783 70.9942V70.9942Z" fill="#59B0EA"/>
<path d="M991.361 135.972C993.371 128.839 998.66 123.091 1005.71 120.382L1115.75 78.0747C1124.07 74.876 1133.64 76.3645 1140.76 81.9646V81.9646C1147.55 87.3143 1151.12 95.6369 1150.18 103.962V103.962C1149.19 112.676 1143.42 120.061 1135.1 123.259L1025.06 165.567C1018.01 168.276 1009.99 167.646 1003.3 163.857V163.857C993.279 158.177 988.348 146.665 991.361 135.972V135.972Z" fill="#8577DC"/>
<path d="M1111.99 227.064C1114 219.931 1119.29 214.183 1126.34 211.474L1236.38 169.166C1244.7 165.968 1254.27 167.456 1261.39 173.056V173.056C1268.19 178.406 1271.75 186.729 1270.81 195.053V195.053C1269.83 203.768 1264.06 211.152 1255.74 214.351L1145.69 256.659C1138.65 259.368 1130.62 258.737 1123.94 254.949V254.949C1113.91 249.269 1108.98 237.756 1111.99 227.064V227.064Z" fill="#FF0000"/>
<path d="M993.856 350.883C995.866 343.751 1001.16 338.003 1008.2 335.294L1118.25 292.986C1126.57 289.787 1136.14 291.276 1143.25 296.876V296.876C1150.05 302.226 1153.61 310.548 1152.67 318.873V318.873C1151.69 327.588 1145.92 334.972 1137.6 338.171L1027.56 380.478C1020.51 383.187 1012.49 382.557 1005.8 378.768V378.768C995.774 373.088 990.843 361.576 993.856 350.883V350.883Z" fill="#77DC9F"/>
<path d="M49.6476 404.967C51.6575 397.834 56.9471 392.086 63.9937 389.377L174.039 347.07C182.359 343.871 191.927 345.359 199.043 350.96V350.96C205.84 356.309 209.405 364.632 208.464 372.957V372.957C207.479 381.671 201.711 389.056 193.391 392.254L83.3466 434.562C76.3 437.271 68.2783 436.641 61.5909 432.852V432.852C51.5653 427.172 46.6344 415.66 49.6476 404.967V404.967Z" fill="#59B0EA"/>
<path d="M16.8083 540.026C18.8182 532.894 24.1078 527.146 31.1544 524.436L141.199 482.129C149.519 478.93 159.087 480.419 166.203 486.019V486.019C173.001 491.369 176.566 499.691 175.625 508.016V508.016C174.64 516.731 168.872 524.115 160.552 527.314L50.5073 569.621C43.4607 572.33 35.439 571.7 28.7516 567.911V567.911C18.726 562.231 13.7952 550.719 16.8083 540.026V540.026Z" fill="#77DC9F"/>
<path d="M122.296 682.713C124.314 675.828 129.46 670.293 136.284 667.67L247.104 625.064C255.183 621.958 264.47 623.362 271.428 628.742V628.742C278.254 634.021 281.816 642.338 280.802 650.63V650.63C279.769 659.082 274.141 666.221 266.062 669.327L155.242 711.932C148.418 714.556 140.657 713.984 134.145 710.377V710.377C124.109 704.819 119.186 693.326 122.296 682.713V682.713Z" fill="#DC7777"/>
<path d="M152.266 594.273C154.276 587.14 159.566 581.392 166.612 578.683L276.657 536.376C284.977 533.177 294.545 534.665 301.661 540.265V540.265C308.459 545.615 312.024 553.938 311.083 562.263V562.263C310.098 570.977 304.33 578.362 296.01 581.56L185.965 623.868C178.919 626.577 170.897 625.946 164.21 622.158V622.158C154.184 616.478 149.253 604.965 152.266 594.273V594.273Z" fill="#FF0000"/>
<path d="M272.591 329.995C274.601 322.862 279.89 317.114 286.937 314.405L396.982 272.097C405.302 268.899 414.87 270.387 421.986 275.987V275.987C428.784 281.337 432.348 289.66 431.407 297.985V297.985C430.423 306.699 424.655 314.084 416.335 317.282L306.29 359.59C299.243 362.299 291.222 361.668 284.534 357.88V357.88C274.509 352.2 269.578 340.687 272.591 329.995V329.995Z" fill="#77DC9F"/>
<path d="M244.393 420.31C246.403 413.178 251.692 407.43 258.739 404.721L368.784 362.413C377.104 359.214 386.672 360.703 393.788 366.303V366.303C400.586 371.653 404.15 379.975 403.209 388.3V388.3C402.224 397.015 396.457 404.399 388.137 407.598L278.092 449.906C271.045 452.615 263.023 451.984 256.336 448.195V448.195C246.31 442.516 241.38 431.003 244.393 420.31V420.31Z" fill="#FF0000"/>
<path d="M341.609 583.77C343.619 576.637 348.909 570.889 355.955 568.18L466 525.872C474.32 522.674 483.888 524.162 491.004 529.762V529.762C497.802 535.112 501.366 543.434 500.426 551.759V551.759C499.441 560.474 493.673 567.858 485.353 571.057L375.308 613.365C368.261 616.074 360.24 615.443 353.552 611.654V611.654C343.527 605.975 338.596 594.462 341.609 583.77V583.77Z" fill="#8577DC"/>
<path d="M386.819 464.36C388.829 457.227 394.119 451.479 401.165 448.77L511.21 406.463C519.53 403.264 529.098 404.752 536.214 410.353V410.353C543.012 415.702 546.577 424.025 545.636 432.35V432.35C544.651 441.064 538.883 448.449 530.563 451.647L420.518 493.955C413.472 496.664 405.45 496.034 398.762 492.245V492.245C388.737 486.565 383.806 475.053 386.819 464.36V464.36Z" fill="#DC7777"/>
<path d="M516.256 226.65C518.266 219.517 523.555 213.769 530.602 211.06L640.647 168.753C648.967 165.554 658.535 167.042 665.651 172.643V172.643C672.449 177.992 676.013 186.315 675.072 194.64V194.64C674.088 203.354 668.32 210.739 660 213.937L549.955 256.245C542.908 258.954 534.887 258.324 528.199 254.535V254.535C518.174 248.855 513.243 237.343 516.256 226.65V226.65Z" fill="#8577DC"/>
<path d="M506.268 330.37C508.278 323.238 513.568 317.49 520.614 314.781L630.659 272.473C638.979 269.274 648.547 270.763 655.663 276.363V276.363C662.461 281.713 666.026 290.035 665.085 298.36V298.36C664.1 307.075 658.332 314.459 650.012 317.658L539.967 359.965C532.921 362.674 524.899 362.044 518.212 358.255V358.255C508.186 352.575 503.255 341.063 506.268 330.37V330.37Z" fill="#DC7777"/>
<path d="M560.292 514.731C562.302 507.599 567.592 501.85 574.638 499.141L684.683 456.834C693.003 453.635 702.571 455.124 709.687 460.724V460.724C716.485 466.073 720.05 474.396 719.109 482.721V482.721C718.124 491.435 712.356 498.82 704.036 502.019L593.991 544.326C586.945 547.035 578.923 546.405 572.236 542.616V542.616C562.21 536.936 557.279 525.424 560.292 514.731V514.731Z" fill="#77DC9F"/>
<path d="M638.651 393.317C640.661 386.184 645.951 380.436 652.997 377.727L763.042 335.42C771.362 332.221 780.93 333.709 788.046 339.31V339.31C794.844 344.659 798.409 352.982 797.468 361.307V361.307C796.483 370.021 790.715 377.406 782.395 380.604L672.35 422.912C665.304 425.621 657.282 424.991 650.594 421.202V421.202C640.569 415.522 635.638 404.01 638.651 393.317V393.317Z" fill="#FF0000"/>
<path d="M721.361 164.597C723.371 157.464 728.66 151.716 735.707 149.007L845.752 106.699C854.072 103.501 863.64 104.989 870.756 110.589V110.589C877.554 115.939 881.118 124.262 880.177 132.586V132.586C879.192 141.301 873.425 148.685 865.105 151.884L755.06 194.192C748.013 196.901 739.992 196.27 733.304 192.482V192.482C723.279 186.802 718.348 175.289 721.361 164.597V164.597Z" fill="#77DC9F"/>
<path d="M731.206 256.396C733.216 249.263 738.506 243.515 745.552 240.806L855.597 198.499C863.917 195.3 873.485 196.788 880.601 202.389V202.389C887.399 207.738 890.964 216.061 890.023 224.386V224.386C889.038 233.1 883.27 240.485 874.95 243.683L764.905 285.991C757.858 288.7 749.837 288.07 743.149 284.281V284.281C733.124 278.601 728.193 267.089 731.206 256.396V256.396Z" fill="#FF0000"/>
<path d="M785.315 456.834C787.325 449.702 792.614 443.953 799.661 441.244L909.706 398.937C918.026 395.738 927.594 397.227 934.71 402.827V402.827C941.508 408.176 945.072 416.499 944.131 424.824V424.824C943.146 433.538 937.379 440.923 929.059 444.122L819.014 486.429C811.967 489.138 803.945 488.508 797.258 484.719V484.719C787.232 479.039 782.302 467.527 785.315 456.834V456.834Z" fill="#DC7777"/>
<path d="M825.066 300.86C827.076 293.727 832.366 287.979 839.412 285.27L949.457 242.962C957.777 239.764 967.345 241.252 974.461 246.852V246.852C981.259 252.202 984.823 260.524 983.883 268.849V268.849C982.898 277.564 977.13 284.948 968.81 288.147L858.765 330.455C851.718 333.164 843.697 332.533 837.009 328.744V328.744C826.984 323.065 822.053 311.552 825.066 300.86V300.86Z" fill="#8577DC"/>
<defs>
<linearGradient id="paint0_linear" x1="615" y1="458.5" x2="640.5" y2="723" gradientUnits="userSpaceOnUse">
<stop stop-color="#8577DC"/>
<stop offset="1" stop-color="#59B0EA"/>
</linearGradient>
</defs>
</svg>
